Coordinates
version=1
nRows=13
nColumns=40
inDegrees=yes

Units are S.I. units (second, meters, Newtons, ...)
Angles are in degrees.

endheader
time	pelvis_tilt	pelvis_list	pelvis_rotation	pelvis_tx	pelvis_ty	pelvis_tz	hip_flexion_r	hip_adduction_r	hip_rotation_r	knee_angle_r	knee_angle_r_beta	ankle_angle_r	subtalar_angle_r	mtp_angle_r	hip_flexion_l	hip_adduction_l	hip_rotation_l	knee_angle_l	knee_angle_l_beta	ankle_angle_l	subtalar_angle_l	mtp_angle_l	lumbar_extension	lumbar_bending	lumbar_rotation	arm_flex_r	arm_add_r	arm_rot_r	elbow_flex_r	pro_sup_r	wrist_flex_r	wrist_dev_r	arm_flex_l	arm_add_l	arm_rot_l	elbow_flex_l	pro_sup_l	wrist_flex_l	wrist_dev_l
     30.67500000	     -4.44683342	     -5.79355683	      2.89226460	      0.93368442	      0.92224094	      0.50445258	     -1.88896862	      5.24423896	    -20.56548922	      9.43442739	      9.43442739	     16.27581536	      7.94454303	     -3.43773558	     31.61465751	     -7.73450559	     -5.01080642	     18.47173015	     18.47173015	      1.95604634	     -9.54503242	      7.95534808	     -7.01752538	      7.26917560	      4.70858910	     41.08125862	    -17.55259654	     -8.36767071	     76.01483055	     44.96179459	      0.00000000	      0.00000000	    -12.54756108	     -6.55747338	      4.07224146	     24.02733506	     44.67845469	      0.00000000	      0.00000000
     30.68707143	     -4.41477759	     -5.71005139	      2.69217371	      0.93534805	      0.92142785	      0.50254381	     -2.41878901	      4.95059130	    -20.31759755	      9.72726830	      9.72726830	     16.62699480	      7.95244771	     -3.47492806	     31.04961938	     -7.48198946	     -4.84887780	     19.30329386	     19.30329386	      1.82898263	    -10.00186915	      7.88318699	     -6.88950233	      7.16378778	      4.73226842	     40.58409711	    -17.52790208	     -8.37937108	     75.90779381	     44.96532943	      0.00000000	      0.00000000	    -12.89131126	     -6.40399485	      4.11120724	     23.96010800	     44.66774462	      0.00000000	      0.00000000
     30.69914286	     -4.53706678	     -5.63414850	      2.50353501	      0.93678360	      0.92029832	      0.50043788	     -2.46710435	      4.53483759	    -20.10728669	     10.64151933	     10.64151933	     17.30830396	      7.76511243	     -3.17491455	     30.73474902	     -7.09023378	     -4.07268325	     20.15653312	     20.15653312	      1.53582681	    -11.41451475	      7.81139637	     -6.62236192	      7.08861263	      4.84983552	     39.98988244	    -17.59470489	     -8.54005695	     75.91198462	     44.97679077	      0.00000000	      0.00000000	    -13.06800120	     -6.35936836	      4.22415133	     24.14855645	     44.65759726	      0.00000000	      0.00000000
     30.71121429	     -4.47281618	     -5.51981130	      2.30364319	      0.93857755	      0.91970979	      0.49838231	     -3.00495010	      4.18827048	    -19.83206615	     10.98606154	     10.98606154	     17.60520928	      7.72946191	     -3.21116167	     30.12099617	     -6.81103666	     -3.83172349	     20.83006556	     20.83006556	      1.72412612	    -11.81096237	      7.63430366	     -6.53869367	      6.93500802	      4.78714835	     39.22639044	    -17.45495711	     -8.49747402	     75.71736798	     44.97958499	      0.00000000	      0.00000000	    -13.22098920	     -6.21271945	      4.25334783	     24.13423374	     44.65141450	      0.00000000	      0.00000000
     30.72328571	     -4.55287434	     -5.32288148	      2.09584869	      0.93997414	      0.91897771	      0.49614687	     -2.87939609	      3.56577597	    -19.49112839	     12.31587594	     12.31587594	     18.33214007	      7.21926371	     -2.56885710	     29.78902946	     -6.31808069	     -3.10177352	     21.54663478	     21.54663478	      1.54295577	    -13.35994855	      7.33014980	     -6.39376412	      6.68853075	      4.92229145	     38.30418421	    -17.52763825	     -8.73474094	     75.63006899	     45.00023249	      0.00000000	      0.00000000	    -13.15596148	     -6.27745897	      4.42394897	     24.35493415	     44.64694990	      0.00000000	      0.00000000
     30.73535714	     -4.53859255	     -5.19162531	      1.91821057	      0.94152665	      0.91861856	      0.49388813	     -2.99127241	      3.07048543	    -19.16889769	     13.34141021	     13.34141021	     18.69403567	      6.83760154	     -2.49356833	     29.41766591	     -6.02415749	     -2.82433925	     22.29592647	     22.29592647	      1.87195041	    -13.99672795	      6.94256375	     -6.32719551	      6.53965111	      4.86088058	     37.29453112	    -17.45249532	     -8.75404400	     75.30194355	     45.01392154	      0.00000000	      0.00000000	    -13.00537658	     -6.25056785	      4.52840260	     24.41102509	     44.64446754	      0.00000000	      0.00000000
     30.74742857	     -4.50425424	     -5.02640395	      1.76726421	      0.94296825	      0.91856771	      0.49149123	     -2.98522545	      2.49402289	    -18.81331254	     14.59965753	     14.59965753	     18.92028697	      6.28828742	     -2.59078845	     29.03721605	     -5.70351735	     -2.59627306	     22.96802245	     22.96802245	      2.32421654	    -14.59444299	      6.58331769	     -6.30953217	      6.33835462	      4.77238687	     36.19146596	    -17.36346525	     -8.74242594	     74.86253400	     45.02848575	      0.00000000	      0.00000000	    -12.70067199	     -6.22273113	      4.62458844	     24.47161956	     44.64410154	      0.00000000	      0.00000000
     30.75950000	     -4.45992616	     -4.85724227	      1.64290055	      0.94430759	      0.91881176	      0.48897681	     -2.84425303	      1.86797700	    -18.45724013	     16.09682986	     16.09682986	     19.00321146	      5.61874021	     -2.85901250	     28.64847190	     -5.39292373	     -2.46411207	     23.56107557	     23.56107557	      2.88658671	    -15.08312596	      6.25103139	     -6.31853983	      6.14338344	      4.64547108	     34.95414576	    -17.26088544	     -8.70670765	     74.30785737	     45.04480339	      0.00000000	      0.00000000	    -12.26741734	     -6.22963352	      4.72247030	     24.52561479	     44.64496400	      0.00000000	      0.00000000
     30.77157143	     -4.42067417	     -4.68640139	      1.53878034	      0.94550270	      0.91930109	      0.48632258	     -2.50066927	      1.17584983	    -18.07632889	     17.92763724	     17.92763724	     18.93455048	      4.82000605	     -3.35120893	     28.24747350	     -5.08640531	     -2.41156632	     24.05873240	     24.05873240	      3.52414404	    -15.45107020	      5.96505021	     -6.33781344	      5.95988716	      4.50933681	     33.61007282	    -17.16615580	     -8.65452763	     73.62910292	     45.06392242	      0.00000000	      0.00000000	    -11.69202074	     -6.24814798	      4.83211107	     24.58644358	     44.64611219	      0.00000000	      0.00000000
     30.78364286	     -4.40663416	     -4.52453729	      1.44928118	      0.94653163	      0.91998906	      0.48355710	     -1.91541726	      0.42773962	    -17.67504392	     20.10929005	     20.10929005	     18.63947398	      3.88698291	     -4.13138918	     27.82773248	     -4.79103641	     -2.43048682	     24.42761098	     24.42761098	      4.20110246	    -15.68938698	      5.76081827	     -6.35256634	      5.79783824	      4.37678745	     32.14701680	    -17.08437837	     -8.59218937	     72.80574887	     45.08713338	      0.00000000	      0.00000000	    -10.98328766	     -6.27659827	      4.96707869	     24.65111658	     44.64600466	      0.00000000	      0.00000000
     30.79571429	     -4.31443797	     -4.36268287	      1.37282305	      0.94753609	      0.92093099	      0.48068151	     -1.25240557	     -0.37476856	    -17.28513532	     22.56453374	     22.56453374	     18.14087538	      2.90064519	     -5.07435072	     27.27997938	     -4.50401803	     -2.53465783	     24.71347851	     24.71347851	      4.90015212	    -15.82155809	      5.58454681	     -6.44681679	      5.64979497	      4.21161813	     30.61549284	    -16.96937875	     -8.49921629	     71.91423129	     45.11022413	      0.00000000	      0.00000000	    -10.19805293	     -6.35061044	      5.08067773	     24.77401746	     44.64854235	      0.00000000	      0.00000000
     30.80778571	     -4.36733467	     -4.21983939	      1.28470804	      0.94820974	      0.92177533	      0.47779858	     -0.32099113	     -1.10252049	    -16.61414029	     24.90851173	     24.90851173	     15.68823895	      0.69514705	    -10.79595073	     26.88808340	     -4.21730353	     -2.61761948	     24.97369219	     24.97369219	      5.91182051	    -15.78931766	      6.38343565	     -6.36221839	      5.55856440	      4.16499589	     29.05046850	    -16.82247194	     -8.69114296	     70.38705134	     45.18774954	      0.00000000	      0.00000000	     -9.09292939	     -6.46545383	      6.22682095	     24.38402268	     44.54694540	      0.00000000	      0.00000000
     30.81985714	     -4.27129136	     -4.05946254	      1.18276600	      0.94895782	      0.92282370	      0.47489627	      0.80904423	     -2.04246695	    -16.22781002	     28.13779693	     28.13779693	     14.82661986	     -0.36333099	    -11.59290669	     26.18124582	     -3.94063450	     -2.86812359	     24.96861541	     24.96861541	      6.55051082	    -15.73266330	      6.11071974	     -6.47648964	      5.42099135	      4.01441941	     27.38401618	    -16.71226578	     -8.51945250	     69.47207670	     45.20727969	      0.00000000	      0.00000000	     -8.22146526	     -6.58341380	      6.25860830	     24.84782944	     44.56268636	      0.00000000	      0.00000000
